<svg xmlns="http://www.w3.org/2000/svg" width="50" height="50" fill="none" viewBox="0 0 50 50">
  <path fill="#596B86" fill-rule="evenodd" d="m6.435 24.527 9.77 9.652c.367.362.865.566 1.383.566h30.458c.518 0 1.015.203 1.382.565.366.362.572.853.572 1.365v5.79c0 .473-.176.93-.494 1.283a1.967 1.967 0 0 1-1.232.635l-.228.013H44.26l1.818 2.53.008.01a1.916 1.916 0 0 1-.49 2.694l-.038.028a1.975 1.975 0 0 1-1.45.313 1.958 1.958 0 0 1-1.254-.784l-3.436-4.785-.004-.004H10.908l-.004.003-3.436 4.786a1.958 1.958 0 0 1-1.254.784 1.975 1.975 0 0 1-1.45-.313l-.04-.028a1.914 1.914 0 0 1-.482-2.702l1.817-2.532H3.1a1.959 1.959 0 0 1-1.693-.965 1.91 1.91 0 0 1 0-1.93 1.959 1.959 0 0 1 1.693-.966l3.908-3.86-6.435-6.357a1.917 1.917 0 0 1 0-2.729l3.1-3.061a1.966 1.966 0 0 1 1.381-.565c.518 0 1.015.203 1.382.564Zm2.527 14.078-1.955 1.93h3.733a1.93 1.93 0 0 0-.397-.565l-1.381-1.365Zm21.496-19.302v13.511H26.55V19.303H12.87c-.829 0-1.657-.695-1.89-1.492a17.279 17.279 0 0 1 4.93-10.636 17.678 17.678 0 0 1 10.64-5.139V1.93c0-.69.372-1.327.977-1.671a1.976 1.976 0 0 1 1.954 0c.605.344.977.981.977 1.671v.106a17.68 17.68 0 0 1 10.638 5.138 17.283 17.283 0 0 1 4.931 10.633c-.23.8-1.06 1.495-1.89 1.495H30.459Z" clip-rule="evenodd"/>
</svg>
