<svg xmlns="http://www.w3.org/2000/svg" width="18" height="12" fill="none" viewBox="0 0 18 12">
  <path fill="#000" d="M15.383 2.6h-7.8a.215.215 0 0 0-.216.217V6.5H1.733V.217A.215.215 0 0 0 1.517 0h-1.3A.215.215 0 0 0 0 .217v11.266c0 .121.095.216.217.216h1.3a.215.215 0 0 0 .216-.216V9.1h14.3v2.383c0 .121.095.217.216.217h1.3a.214.214 0 0 0 .217-.217v-6.5A2.387 2.387 0 0 0 15.383 2.6ZM7.367 8.666h-5.85a.215.215 0 0 0-.217.217v2.383H.434V.433H1.3v6.283c0 .122.095.217.217.217h5.85v1.733Zm9.966 2.6h-.867V8.883a.215.215 0 0 0-.216-.216H7.8V3.032h7.583c1.075 0 1.95.876 1.95 1.95v6.283Z"/>
  <path fill="#000" d="M2.6 3.683c0 1.075.875 1.95 1.95 1.95 1.074 0 1.95-.875 1.95-1.95 0-1.074-.876-1.95-1.95-1.95-1.075 0-1.95.876-1.95 1.95Zm3.466 0c0 .837-.68 1.517-1.516 1.517s-1.517-.68-1.517-1.517a1.518 1.518 0 0 1 3.033 0Z"/>
</svg>
