<svg xmlns="http://www.w3.org/2000/svg" width="54" height="53" fill="none" viewBox="0 0 54 53">
  <path fill="#596B86" d="M53.165 50.895h-7.628a5.222 5.222 0 0 0 2.405-4.396 5.23 5.23 0 1 0-10.462 0c0 1.847.953 3.467 2.396 4.396h-22.9a5.222 5.222 0 0 0 2.406-4.396 5.23 5.23 0 1 0-10.462 0c0 1.847.953 3.467 2.396 4.396H1.123a.837.837 0 0 0-.835.835c0 .455.371.835.835.835h52.042c.464 0 .835-.38.835-.835a.837.837 0 0 0-.835-.835Zm-10.462-6.506a2.11 2.11 0 1 1-2.11 2.11 2.105 2.105 0 0 1 2.11-2.11Zm-28.561 0a2.11 2.11 0 1 1-.002 4.22 2.11 2.11 0 0 1 .002-4.22ZM2.464 15.145l7.113.084a2.202 2.202 0 0 0 2.236-2.185 2.208 2.208 0 0 0-2.186-2.236h-.033c.008-.042.008-.067.008-.11a2.962 2.962 0 0 0-2.92-2.986 2.947 2.947 0 0 0-2.978 2.784 2.454 2.454 0 0 0-1.19-.32C1.148 10.15.017 11.256 0 12.63a2.488 2.488 0 0 0 2.464 2.514ZM41.75 2.565c.464 0 .835-.38.835-.835V.835A.832.832 0 0 0 41.75 0a.837.837 0 0 0-.835.835v.886a.834.834 0 0 0 .835.844Zm-3.3.27c.152.27.44.422.726.422A.83.83 0 0 0 39.902 2l-.448-.777A.83.83 0 0 0 38.307.92a.83.83 0 0 0-.304 1.148l.447.768Zm-2.346 1.746.768.44a.865.865 0 0 0 .422.109.836.836 0 0 0 .726-.422.848.848 0 0 0-.304-1.147l-.768-.447a.84.84 0 0 0-1.147.303.85.85 0 0 0 .303 1.164Zm-.396 3.131h.886c.464 0 .835-.38.835-.835a.832.832 0 0 0-.835-.835h-.886a.837.837 0 0 0-.835.835c0 .455.37.835.835.835ZM43.9 3.139a.87.87 0 0 0 .423.11.836.836 0 0 0 .725-.423l.447-.768a.848.848 0 0 0-.303-1.147.84.84 0 0 0-1.148.304l-.447.768a.84.84 0 0 0 .304 1.156Zm-1.467 5.045a2.502 2.502 0 0 0-1.249-.32 2.609 2.609 0 0 0-2.607 2.607 2.614 2.614 0 0 0 2.607 2.607h7.459a2.319 2.319 0 1 0 0-4.64h-.034c.009-.043.009-.076.009-.118a3.099 3.099 0 0 0-3.097-3.097 3.098 3.098 0 0 0-3.088 2.961Zm-4.008-1.316c0 .11.017.21.026.32a4.26 4.26 0 0 1 2.725-1.004h.067a4.752 4.752 0 0 1 2.203-2.16 3.231 3.231 0 0 0-1.696-.481 3.331 3.331 0 0 0-3.325 3.325ZM3.072 35.808c0-.666.11-1.316.329-1.923l1.46-4.202a2.545 2.545 0 0 0-1.325-.372 2.582 2.582 0 0 0-2.582 2.582v7.333c0 1.265.92 2.32 2.126 2.53v-5.948h-.008Z"/>
  <path fill="#596B86" d="M7.747 26.469 4.979 34.45a4.174 4.174 0 0 0-.227 1.359v6.176h4.176a6.881 6.881 0 0 1 5.223-2.396 6.91 6.91 0 0 1 5.223 2.396h18.115a6.881 6.881 0 0 1 5.223-2.396c2.084 0 3.957.936 5.222 2.396h2.903v-2.514a4.678 4.678 0 0 0-4.345-4.666l-6.193-.439-4.928-8.606a4.16 4.16 0 0 0-3.594-2.084H11.662a4.155 4.155 0 0 0-3.915 2.793Zm14.824 1.156c0-.532.43-.97.97-.97h8.219c.421 0 .81.227 1.02.59l3.603 6.294a.967.967 0 0 1-.843 1.451H23.542a.97.97 0 0 1-.97-.97v-6.395Zm-2.607 0v6.404a.97.97 0 0 1-.97.97H9.3a.964.964 0 0 1-.911-1.283l2.168-6.269c.16-.472.608-.785 1.105-.785h7.333c.54-.008.97.423.97.963ZM49.613 46.5c0 .54-.068 1.062-.186 1.569h2.042a1.03 1.03 0 0 0 1.03-1.03v-2.345c0-.566-.456-1.03-1.03-1.03h-2.472c.388.87.616 1.822.616 2.835Zm-45.52-2.836a1.03 1.03 0 0 0-1.03 1.03v2.345c0 .565.456 1.03 1.03 1.03h3.324a6.787 6.787 0 0 1 .43-4.404H4.094Zm16.351 0a6.93 6.93 0 0 1 .616 2.835c0 .54-.067 1.063-.185 1.57h15.11a6.787 6.787 0 0 1 .43-4.404h-15.97Z"/>
</svg>
