<svg xmlns="http://www.w3.org/2000/svg" width="59" height="50" fill="none" viewBox="0 0 59 50">
  <path fill="#596B86" d="M32.337 46.793a3.207 3.207 0 1 1-6.414 0 3.207 3.207 0 0 1 6.414 0Zm10.309-15.916a21.371 21.371 0 0 0-27.03 0 2.928 2.928 0 1 0 3.72 4.522 15.517 15.517 0 0 1 19.59 0 2.928 2.928 0 1 0 3.72-4.522Z"/>
  <path fill="#596B86" d="M55.236 24.57c.647-7.09-5.365-13.745-12.482-13.828C38.85-2.736 21.34-3.81 15.98 9.103 7.592 11.1 2.754 16.999 4.05 23.947.657 25.596-.382 29.22.12 32.014a6.621 6.621 0 0 0 6.614 5.617h7.439a.697.697 0 0 0 .432-1.222 4.338 4.338 0 0 1 .14-6.595 22.744 22.744 0 0 1 28.772 0c2.054 1.595 2.146 4.957.123 6.61a.692.692 0 0 0 .449 1.207h7.349c3.837.18 6.764-3.316 6.814-7.088-.08-2.67-1.146-4.773-3.015-5.973Zm-44.605.558a.687.687 0 0 1-.93.279 5.894 5.894 0 0 0-4.619-.417.687.687 0 0 0 .426-.838 5.829 5.829 0 0 1-.132-.67 7.45 7.45 0 0 1 4.975.716c.334.18.459.596.28.93Zm14.518-13.873a.687.687 0 0 1-.935.266 11.513 11.513 0 0 0-7.56-1.169.687.687 0 0 0 .468-.416c.152-.376.312-.747.49-1.104a12.912 12.912 0 0 1 7.272 1.489c.33.184.45.603.265.934Zm7.793 5.7a.687.687 0 1 1-1.117-.797 12.707 12.707 0 0 1 9.492-5.389c.092.275.175.55.252.834a.71.71 0 0 0 .665.509 11.329 11.329 0 0 0-9.292 4.842Zm18.18 7.733a.687.687 0 1 1 0-1.374 7.223 7.223 0 0 1 2.772.545c-.005.335-.028.673-.065 1.008a.688.688 0 0 0 .321.66 5.806 5.806 0 0 0-3.028-.839Z"/>
  <path fill="#596B86" d="M36.122 37.172a12.447 12.447 0 0 0-13.983 0 2.933 2.933 0 0 0 3.367 4.802 6.565 6.565 0 0 1 7.248 0 2.933 2.933 0 0 0 3.368-4.802Z"/>
</svg>
