<svg xmlns="http://www.w3.org/2000/svg" width="256" height="213" fill="none" viewBox="0 0 256 213">
  <g filter="url(#a)">
    <path fill="#fff" d="M27 21a8 8 0 0 1 8-8h190a8 8 0 0 1 8 8v147a8 8 0 0 1-8 8H35a8 8 0 0 1-8-8V21Z"/>
    <rect width="105" height="18" x="42" y="27" fill="#C9D6E9" rx="9"/>
    <path fill="#4C6487" d="m65.236 41-2.877-7.582h-.047c.016.16.03.355.041.586a34.23 34.23 0 0 1 .041 1.582V41h-.925v-8.566h1.476l2.713 7.125h.041l2.754-7.125h1.465V41h-.984v-5.484c0-.254.004-.508.011-.762a34.167 34.167 0 0 1 .065-1.324h-.047L66.05 41h-.815Zm9.282-6.527c.765 0 1.334.172 1.705.515.37.344.556.893.556 1.647V41h-.709l-.187-.95h-.047a3.57 3.57 0 0 1-.563.593 2.09 2.09 0 0 1-.68.357 3.229 3.229 0 0 1-.937.117c-.39 0-.738-.068-1.043-.205a1.634 1.634 0 0 1-.715-.621c-.171-.277-.257-.629-.257-1.055 0-.64.253-1.133.761-1.476.508-.344 1.282-.532 2.32-.563l1.108-.047v-.392c0-.555-.12-.944-.357-1.166-.239-.223-.575-.334-1.008-.334a3.15 3.15 0 0 0-.961.146 6.586 6.586 0 0 0-.867.346l-.3-.738c.29-.149.622-.276.997-.381a4.35 4.35 0 0 1 1.184-.158Zm1.3 3.363-.978.041c-.8.031-1.365.162-1.694.392-.328.231-.492.557-.492.979 0 .367.112.639.334.815.223.175.518.263.885.263.57 0 1.037-.158 1.4-.474.364-.317.545-.791.545-1.424v-.592Zm5.883-3.375c.13 0 .264.008.405.023.14.012.265.03.375.053l-.124.903a3.032 3.032 0 0 0-.715-.088c-.257 0-.501.052-.732.158-.226.101-.426.25-.597.445a2.073 2.073 0 0 0-.405.697c-.097.27-.146.57-.146.903V41h-.979v-6.422h.809l.105 1.184h.041c.133-.239.293-.455.48-.65.188-.2.405-.358.651-.475.25-.117.528-.176.832-.176Zm2.96-2.578v4.734c0 .156-.007.348-.018.574l-.03.592h.041c.082-.101.202-.252.358-.451.16-.2.295-.36.404-.48l2.133-2.274h1.142l-2.584 2.742L88.88 41h-1.172l-2.267-3.041-.78.715V41h-.967v-9.117h.967Zm7.81 2.578c.547 0 1.015.121 1.406.363.39.242.69.582.896 1.02.208.433.311.941.311 1.523v.604h-4.436c.012.754.2 1.328.563 1.722.363.395.875.592 1.535.592.406 0 .766-.037 1.078-.111.313-.074.637-.184.973-.328v.855c-.324.145-.647.25-.967.317-.316.066-.691.1-1.125.1-.617 0-1.156-.126-1.617-.376a2.623 2.623 0 0 1-1.066-1.113c-.254-.488-.381-1.086-.381-1.793 0-.691.115-1.29.345-1.793.235-.508.563-.898.985-1.172.425-.273.925-.41 1.5-.41Zm-.012.797c-.52 0-.934.17-1.242.51-.309.34-.492.814-.551 1.423h3.398a2.747 2.747 0 0 0-.181-1.007 1.415 1.415 0 0 0-.522-.68c-.234-.164-.535-.246-.902-.246Zm6.352 5.062a3.065 3.065 0 0 0 .902-.14v.755a2.089 2.089 0 0 1-.475.13 3.375 3.375 0 0 1-.586.052c-.34 0-.648-.058-.925-.176a1.434 1.434 0 0 1-.668-.609c-.165-.285-.246-.68-.246-1.184V35.34h-.915v-.475l.92-.38.387-1.395h.586v1.488h1.88v.762h-1.88v3.78c0 .402.092.702.275.902.188.199.436.298.745.298Zm10.3-1.6c0 .508-.127.942-.381 1.302-.25.355-.601.626-1.054.814-.453.187-.987.281-1.6.281a8.56 8.56 0 0 1-.92-.047 6.276 6.276 0 0 1-.797-.135 3.368 3.368 0 0 1-.638-.216v-.955c.293.12.65.234 1.072.34.422.101.863.152 1.324.152.43 0 .793-.057 1.09-.17.297-.117.522-.283.674-.498.156-.219.234-.48.234-.785 0-.293-.064-.537-.193-.733-.129-.199-.344-.379-.645-.539a8.527 8.527 0 0 0-1.218-.521 6.504 6.504 0 0 1-.961-.422 2.996 2.996 0 0 1-.698-.528 1.982 1.982 0 0 1-.427-.68 2.574 2.574 0 0 1-.141-.884c0-.457.115-.848.346-1.172.234-.328.556-.578.967-.75.414-.176.888-.264 1.423-.264a5.772 5.772 0 0 1 2.338.475l-.31.856a6.764 6.764 0 0 0-.985-.323 4.37 4.37 0 0 0-1.066-.128c-.367 0-.678.054-.932.163-.25.106-.441.256-.574.452a1.208 1.208 0 0 0-.199.697c0 .3.062.55.187.75.129.2.332.377.61.533a8.3 8.3 0 0 0 1.113.48c.504.184.932.38 1.283.587.352.203.619.453.803.75.184.293.275.666.275 1.119Zm3.68 1.6a3.065 3.065 0 0 0 .902-.14v.755a2.078 2.078 0 0 1-.474.13 3.376 3.376 0 0 1-.586.052c-.34 0-.649-.058-.926-.176a1.435 1.435 0 0 1-.668-.609c-.164-.285-.246-.68-.246-1.184V35.34h-.914v-.475l.92-.38.387-1.395h.585v1.488h1.881v.762h-1.881v3.78c0 .402.092.702.276.902.187.199.435.298.744.298Zm4.605-5.847c.766 0 1.334.172 1.706.515.371.344.556.893.556 1.647V41h-.709l-.187-.95h-.047a3.57 3.57 0 0 1-.563.593 2.093 2.093 0 0 1-.679.357 3.232 3.232 0 0 1-.938.117c-.39 0-.738-.068-1.043-.205a1.624 1.624 0 0 1-.715-.621c-.172-.277-.257-.629-.257-1.055 0-.64.253-1.133.761-1.476.508-.344 1.281-.532 2.321-.563l1.107-.047v-.392c0-.555-.119-.944-.357-1.166-.239-.223-.575-.334-1.008-.334a3.13 3.13 0 0 0-.961.146 6.54 6.54 0 0 0-.867.346l-.299-.738a5.35 5.35 0 0 1 .996-.381 4.347 4.347 0 0 1 1.183-.158Zm1.301 3.363-.978.041c-.801.031-1.365.162-1.694.392-.328.231-.492.557-.492.979 0 .367.112.639.334.815.223.175.518.263.885.263.57 0 1.037-.158 1.4-.474.364-.317.545-.791.545-1.424v-.592Zm5.039 2.484c.16 0 .325-.013.493-.04.167-.028.304-.061.41-.1v.755a2.104 2.104 0 0 1-.475.13 3.367 3.367 0 0 1-.586.052c-.34 0-.648-.058-.926-.176a1.435 1.435 0 0 1-.668-.609c-.164-.285-.246-.68-.246-1.184V35.34h-.914v-.475l.92-.38.387-1.395h.586v1.488h1.881v.762h-1.881v3.78c0 .402.092.702.275.902.188.199.436.298.744.298Zm3.176-5.742V41h-.973v-6.422h.973Zm-.474-2.402c.16 0 .296.052.41.158.117.101.175.262.175.48 0 .215-.058.376-.175.48a.581.581 0 0 1-.41.16.595.595 0 0 1-.422-.16c-.11-.104-.164-.265-.164-.48 0-.218.054-.379.164-.48a.595.595 0 0 1 .422-.158Zm5.109 8.941c-.578 0-1.088-.119-1.529-.357-.442-.238-.786-.602-1.032-1.09-.246-.488-.369-1.104-.369-1.846 0-.777.129-1.412.387-1.904.262-.496.621-.863 1.078-1.102.457-.238.977-.357 1.559-.357.32 0 .629.033.925.1.301.062.547.142.739.24l-.293.814a5.069 5.069 0 0 0-.68-.21 2.998 2.998 0 0 0-.715-.095c-.445 0-.816.096-1.113.288-.293.191-.514.472-.662.843-.145.371-.217.828-.217 1.371 0 .52.07.963.211 1.33.144.368.357.649.639.844.285.192.64.287 1.066.287.34 0 .647-.035.92-.105a5.37 5.37 0 0 0 .744-.258v.867a3.01 3.01 0 0 1-.721.252 4.337 4.337 0 0 1-.937.088Z"/>
    <circle cx="52.5" cy="36.5" r="2.5" fill="#4C6487"/>
    <path stroke="#445670" stroke-linecap="round" stroke-width="2" d="M42 119.702c11.625 1.479 15-2.671 16.364-10.016 8.182-14.022 30-15.357 38.182-8.68 13.636 17.361 19.772 20.699 28.636 2.003 13.725-18.981 17.717-19.395 24.545-10.016 9.359 6.138 11.518 8.278 12.955 16.026 2.045 4.006 6.627 2.689 8.182-3.339C187 81 195 79 210 92.993"/>
    <circle cx="159.5" cy="100.5" r="4.85" fill="#fff" stroke="#597193" stroke-width="1.3"/>
    <rect width="26" height="15" x="166" y="148" fill="#C9D6E9" rx="7.5"/>
    <path fill="#6D7589" d="M52.552 159.88a2.47 2.47 0 0 1-.43-.034 1.433 1.433 0 0 1-.317-.093v-.708c.104.032.216.057.337.073.12.02.25.029.39.029.183 0 .35-.035.503-.107a.801.801 0 0 0 .366-.366c.091-.173.137-.41.137-.713v-7.1h.835v7.036c0 .446-.075.816-.225 1.109a1.442 1.442 0 0 1-.63.654c-.27.147-.592.22-.966.22Zm5.696-7.319c.638 0 1.111.143 1.42.429.31.287.464.744.464 1.372V158h-.59l-.157-.791h-.039a2.96 2.96 0 0 1-.469.493c-.162.13-.351.23-.566.298a2.691 2.691 0 0 1-.781.098c-.326 0-.616-.057-.87-.171a1.356 1.356 0 0 1-.595-.518c-.143-.231-.215-.524-.215-.879 0-.534.212-.944.635-1.23.423-.287 1.068-.443 1.933-.469l.923-.039v-.327c0-.462-.1-.786-.298-.972-.198-.185-.478-.278-.84-.278-.28 0-.546.041-.8.122a5.38 5.38 0 0 0-.723.288l-.249-.615c.24-.124.518-.23.83-.318.313-.088.641-.131.986-.131Zm1.083 2.802-.815.034c-.667.027-1.138.136-1.411.328-.274.192-.41.463-.41.815 0 .306.093.532.278.679.186.146.431.219.737.219.476 0 .865-.131 1.167-.395.303-.264.454-.659.454-1.187v-.493Zm5.105-2.812c.635 0 1.115.156 1.44.469.326.309.489.807.489 1.494V158h-.8v-3.433c0-.446-.103-.779-.308-1.001-.202-.221-.513-.332-.933-.332-.592 0-1.01.168-1.25.503-.24.336-.361.822-.361 1.46V158h-.81v-5.352h.653l.123.772h.043c.114-.189.26-.347.435-.474.176-.13.373-.228.59-.293a2.3 2.3 0 0 1 .69-.102ZM77.18 158h-.83v-7.139h3.975v.733H77.18v2.617h2.954v.727H77.18V158Zm6.374-5.449c.456 0 .847.101 1.172.303.326.201.575.485.747.849.173.361.26.785.26 1.27v.503h-3.697c.01.628.166 1.106.469 1.435.302.329.729.493 1.279.493.338 0 .638-.031.898-.092a4.94 4.94 0 0 0 .811-.274v.713c-.27.12-.539.208-.806.264a4.644 4.644 0 0 1-.937.083c-.514 0-.964-.105-1.348-.313a2.183 2.183 0 0 1-.889-.928c-.211-.406-.317-.905-.317-1.494 0-.576.096-1.074.288-1.494.196-.423.469-.749.82-.976.355-.228.772-.342 1.25-.342Zm-.01.664c-.432 0-.777.141-1.034.425-.258.283-.41.678-.46 1.186h2.833a2.289 2.289 0 0 0-.152-.84 1.177 1.177 0 0 0-.434-.566c-.196-.137-.446-.205-.752-.205Zm4.476-2.813v1.9c0 .218-.007.429-.02.635l-.024.478h.044a1.81 1.81 0 0 1 .635-.61c.276-.166.63-.249 1.06-.249.67 0 1.203.232 1.6.698.401.462.601 1.151.601 2.065 0 .603-.09 1.11-.273 1.524-.183.413-.44.726-.772.937-.332.212-.724.318-1.176.318-.424 0-.772-.078-1.045-.235a1.824 1.824 0 0 1-.625-.581h-.064l-.166.718h-.586v-7.598h.81Zm1.562 2.832c-.387 0-.695.077-.923.23-.228.15-.392.377-.493.683-.097.303-.146.687-.146 1.153v.044c0 .674.112 1.19.337 1.548.224.354.633.532 1.225.532.498 0 .871-.182 1.118-.547.251-.365.376-.885.376-1.563 0-.69-.123-1.209-.37-1.557-.245-.348-.62-.523-1.124-.523ZM102.09 158l-2.397-6.318h-.04c.014.133.025.296.035.488a28.196 28.196 0 0 1 .034 1.318V158h-.771v-7.139h1.23l2.261 5.938h.034l2.295-5.938h1.221V158h-.821v-4.57a22.41 22.41 0 0 1 .034-1.241c.01-.192.02-.358.03-.498h-.039L102.768 158h-.679Zm7.835-5.439c.638 0 1.111.143 1.421.429.309.287.463.744.463 1.372V158h-.59l-.157-.791h-.039a2.96 2.96 0 0 1-.468.493c-.163.13-.352.23-.567.298a2.688 2.688 0 0 1-.781.098 2.1 2.1 0 0 1-.869-.171 1.352 1.352 0 0 1-.596-.518c-.143-.231-.215-.524-.215-.879 0-.534.212-.944.635-1.23.423-.287 1.068-.443 1.934-.469l.922-.039v-.327c0-.462-.099-.786-.297-.972-.199-.185-.479-.278-.84-.278-.28 0-.547.041-.801.122a5.391 5.391 0 0 0-.723.288l-.249-.615c.241-.124.518-.23.83-.318a3.63 3.63 0 0 1 .987-.131Zm1.084 2.802-.816.034c-.667.027-1.138.136-1.411.328-.273.192-.41.463-.41.815 0 .306.093.532.278.679.186.146.432.219.738.219.475 0 .864-.131 1.167-.395.302-.264.454-.659.454-1.187v-.493Zm5.002-2.812c.107 0 .22.006.337.019.117.01.221.025.312.044l-.102.752a2.404 2.404 0 0 0-.596-.073c-.215 0-.418.044-.61.132a1.432 1.432 0 0 0-.498.371 1.719 1.719 0 0 0-.337.581 2.18 2.18 0 0 0-.122.752V158h-.816v-5.352h.674l.088.987h.034c.111-.199.244-.379.401-.542.156-.166.337-.298.542-.396a1.62 1.62 0 0 1 .693-.146ZM127.765 158l-.879-2.266h-2.861l-.874 2.266h-.84l2.793-7.168h.747l2.773 7.168h-.859Zm-1.128-3.003-.835-2.251a21.18 21.18 0 0 0-.098-.288l-.131-.415c-.046-.143-.083-.259-.113-.347a13.719 13.719 0 0 1-.307 1.05l-.85 2.251h2.334Zm5.471-2.446c.668 0 1.2.229 1.597.688.397.459.596 1.149.596 2.071 0 .608-.092 1.119-.274 1.533-.182.413-.439.726-.771.937-.329.212-.718.318-1.167.318-.284 0-.533-.038-.747-.113a1.763 1.763 0 0 1-.552-.302 1.998 1.998 0 0 1-.381-.415h-.059l.035.459c.016.179.024.335.024.468v2.198h-.815v-7.745h.668l.108.791h.039c.104-.162.231-.31.381-.444.15-.137.332-.244.547-.322.218-.082.475-.122.771-.122Zm-.141.683c-.371 0-.671.072-.899.215a1.235 1.235 0 0 0-.493.645c-.104.283-.16.639-.166 1.069v.156c0 .453.049.835.146 1.148.101.312.266.55.494.713.231.162.54.244.927.244.332 0 .609-.09.83-.269.222-.179.386-.428.494-.747.11-.322.166-.692.166-1.108 0-.632-.124-1.133-.371-1.504-.245-.374-.621-.562-1.128-.562Zm6.281-.683c.108 0 .22.006.337.019.117.01.222.025.313.044l-.103.752a2.37 2.37 0 0 0-.596-.073 1.45 1.45 0 0 0-.61.132 1.432 1.432 0 0 0-.498.371 1.719 1.719 0 0 0-.337.581 2.205 2.205 0 0 0-.122.752V158h-.815v-5.352h.673l.088.987h.035c.11-.199.244-.379.4-.542.156-.166.337-.298.542-.396a1.62 1.62 0 0 1 .693-.146ZM148.665 158l-2.397-6.318h-.039c.013.133.024.296.034.488a24.64 24.64 0 0 1 .034 1.318V158h-.771v-7.139h1.23l2.261 5.938h.034l2.295-5.938h1.221V158h-.821v-4.57a22.41 22.41 0 0 1 .035-1.241c.009-.192.019-.358.029-.498h-.039L149.344 158h-.679Zm7.835-5.439c.638 0 1.111.143 1.421.429.309.287.464.744.464 1.372V158h-.591l-.157-.791h-.039a2.96 2.96 0 0 1-.468.493c-.163.13-.352.23-.567.298a2.688 2.688 0 0 1-.781.098c-.325 0-.615-.057-.869-.171a1.357 1.357 0 0 1-.596-.518c-.143-.231-.215-.524-.215-.879 0-.534.212-.944.635-1.23.423-.287 1.068-.443 1.934-.469l.923-.039v-.327c0-.462-.1-.786-.298-.972-.199-.185-.479-.278-.84-.278-.28 0-.547.041-.801.122a5.391 5.391 0 0 0-.723.288l-.249-.615c.241-.124.518-.23.83-.318a3.63 3.63 0 0 1 .987-.131Zm1.084 2.802-.816.034c-.667.027-1.137.136-1.411.328-.273.192-.41.463-.41.815 0 .306.093.532.278.679.186.146.432.219.738.219.475 0 .864-.131 1.167-.395.302-.264.454-.659.454-1.187v-.493Zm1.726-2.715h.869l1.182 3.106c.068.182.131.358.19.527.059.166.111.326.156.479.046.153.082.301.108.444h.034a27.947 27.947 0 0 1 .469-1.455l1.118-3.101h.874l-2.329 6.138a4.113 4.113 0 0 1-.435.86 1.711 1.711 0 0 1-.596.561c-.234.133-.517.2-.849.2-.153 0-.288-.01-.405-.029a2.364 2.364 0 0 1-.303-.059v-.649a2.864 2.864 0 0 0 .581.063c.202 0 .376-.039.522-.117a1.06 1.06 0 0 0 .386-.332c.107-.146.2-.32.278-.522l.293-.752-2.143-5.362Zm36.483 7.232c-.163 0-.306-.012-.43-.034a1.442 1.442 0 0 1-.317-.093v-.708c.104.032.217.057.337.073.12.02.251.029.391.029.182 0 .35-.035.503-.107a.8.8 0 0 0 .366-.366c.091-.173.136-.41.136-.713v-7.1h.835v7.036c0 .446-.074.816-.224 1.109a1.447 1.447 0 0 1-.63.654c-.27.147-.592.22-.967.22Zm8.113-7.232V158h-.664l-.117-.752h-.044a1.554 1.554 0 0 1-.43.469 1.864 1.864 0 0 1-.596.283 2.433 2.433 0 0 1-.698.098c-.423 0-.778-.069-1.064-.205a1.385 1.385 0 0 1-.65-.635c-.143-.287-.215-.654-.215-1.104v-3.506h.821v3.448c0 .446.101.779.302 1.001.202.218.51.327.923.327.397 0 .713-.075.947-.225.238-.15.409-.369.513-.659.104-.293.156-.651.156-1.074v-2.818h.816Zm2.629 5.352h-.815v-7.598h.815V158Z"/>
    <path fill="#101828" d="M172.449 159.88c-.163 0-.306-.012-.43-.034a1.442 1.442 0 0 1-.317-.093v-.708c.104.032.216.057.337.073.12.02.251.029.39.029.183 0 .35-.035.503-.107a.807.807 0 0 0 .367-.366c.091-.173.136-.41.136-.713v-7.1h.835v7.036c0 .446-.075.816-.224 1.109a1.447 1.447 0 0 1-.63.654c-.27.147-.593.22-.967.22Zm8.113-7.232V158h-.664l-.118-.752h-.043a1.554 1.554 0 0 1-.43.469 1.874 1.874 0 0 1-.596.283 2.433 2.433 0 0 1-.698.098c-.423 0-.778-.069-1.065-.205a1.387 1.387 0 0 1-.649-.635c-.143-.287-.215-.654-.215-1.104v-3.506h.82v3.448c0 .446.101.779.303 1.001.202.218.51.327.923.327.397 0 .713-.075.947-.225.238-.15.409-.369.513-.659.104-.293.156-.651.156-1.074v-2.818h.816Zm4.348-.097c.635 0 1.115.156 1.44.469.326.309.488.807.488 1.494V158h-.8v-3.433c0-.446-.103-.779-.308-1.001-.202-.221-.513-.332-.933-.332-.592 0-1.009.168-1.25.503-.24.336-.361.822-.361 1.46V158h-.81v-5.352h.654l.122.772h.044c.114-.189.259-.347.434-.474a1.9 1.9 0 0 1 .591-.293c.218-.068.448-.102.689-.102ZM46.834 57.19c-.473 0-.899.082-1.277.245-.375.16-.696.395-.961.704a3.184 3.184 0 0 0-.604 1.107c-.14.434-.21.922-.21 1.465 0 .719.11 1.344.333 1.875.227.527.563.936 1.008 1.224.45.29 1.01.434 1.682.434.383 0 .742-.031 1.078-.094.34-.066.67-.148.99-.246v.867a5.06 5.06 0 0 1-.984.258 7.395 7.395 0 0 1-1.225.088c-.871 0-1.6-.18-2.186-.539a3.373 3.373 0 0 1-1.312-1.535c-.289-.66-.434-1.44-.434-2.338 0-.648.09-1.24.27-1.775.183-.54.45-1.004.797-1.395a3.53 3.53 0 0 1 1.289-.902c.512-.215 1.097-.323 1.758-.323.433 0 .851.043 1.254.13a4.58 4.58 0 0 1 1.09.369l-.399.843a5.94 5.94 0 0 0-.902-.322 3.782 3.782 0 0 0-1.055-.14Zm9.287 4.587c0 .528-.068.998-.205 1.413a2.893 2.893 0 0 1-.592 1.048c-.258.285-.57.504-.937.656a3.243 3.243 0 0 1-1.237.223 3.07 3.07 0 0 1-1.183-.223 2.67 2.67 0 0 1-.926-.656 3.032 3.032 0 0 1-.603-1.048 4.381 4.381 0 0 1-.211-1.413c0-.703.119-1.3.357-1.793a2.547 2.547 0 0 1 1.02-1.13c.445-.262.974-.393 1.587-.393.586 0 1.098.13 1.536.392.441.262.783.641 1.025 1.137.246.492.37 1.088.37 1.787Zm-4.887 0c0 .516.069.963.206 1.342.136.379.347.672.632.879.285.207.653.31 1.102.31.445 0 .81-.103 1.096-.31.289-.207.502-.5.638-.879.137-.379.205-.826.205-1.342 0-.511-.068-.953-.205-1.324a1.772 1.772 0 0 0-.633-.867c-.285-.203-.654-.305-1.107-.305-.668 0-1.158.221-1.47.662-.31.442-.464 1.053-.464 1.834Zm11.871-3.199V65h-.796l-.141-.902h-.053a1.88 1.88 0 0 1-.515.562c-.211.153-.45.266-.715.34a2.917 2.917 0 0 1-.838.117c-.508 0-.934-.082-1.277-.246a1.656 1.656 0 0 1-.78-.762c-.172-.343-.258-.785-.258-1.324v-4.207h.985v4.137c0 .535.12.935.363 1.201.242.262.611.393 1.108.393.476 0 .855-.09 1.136-.27a1.5 1.5 0 0 0 .616-.791c.125-.351.187-.781.187-1.289v-3.38h.978Zm4.975-.117c.129 0 .264.008.404.023.141.012.266.03.375.053l-.123.903a3.032 3.032 0 0 0-.715-.088 1.73 1.73 0 0 0-.732.158c-.227.101-.426.25-.598.445a2.073 2.073 0 0 0-.404.697c-.098.27-.146.57-.146.903V65h-.979v-6.422h.809l.105 1.184h.041c.133-.239.293-.455.48-.65.188-.2.405-.358.651-.475.25-.117.527-.176.832-.176Zm6.147 4.781c0 .41-.104.756-.311 1.037-.203.278-.496.487-.879.627-.379.14-.832.211-1.36.211a5.63 5.63 0 0 1-1.165-.105 3.376 3.376 0 0 1-.862-.3v-.896c.262.13.575.246.938.352.363.105.734.158 1.113.158.555 0 .957-.09 1.207-.27a.855.855 0 0 0 .375-.732c0-.176-.05-.33-.152-.463-.098-.136-.264-.267-.498-.392a7.375 7.375 0 0 0-.973-.422 11.24 11.24 0 0 1-1.066-.463 1.99 1.99 0 0 1-.692-.568c-.16-.223-.24-.512-.24-.868 0-.543.219-.959.656-1.248.442-.293 1.02-.44 1.735-.44.386 0 .748.04 1.084.118.34.074.656.176.949.305l-.328.78a6.015 6.015 0 0 0-.85-.288 3.645 3.645 0 0 0-.92-.117c-.449 0-.795.074-1.037.222-.238.149-.357.352-.357.61 0 .2.054.363.164.492.113.129.293.25.539.363.246.114.57.246.972.399.403.148.75.303 1.043.463.294.156.518.347.674.574.16.222.24.51.24.861Zm4.037-4.781c.547 0 1.015.121 1.406.363.39.242.69.582.896 1.02.207.433.311.941.311 1.523v.604h-4.436c.012.754.2 1.328.563 1.722.363.395.875.592 1.535.592.406 0 .766-.037 1.078-.111.313-.074.637-.184.973-.328v.855c-.324.145-.647.25-.967.317-.316.066-.691.1-1.125.1-.617 0-1.156-.126-1.617-.376a2.622 2.622 0 0 1-1.067-1.113c-.253-.488-.38-1.086-.38-1.793 0-.691.115-1.29.345-1.793.235-.508.563-.898.985-1.172.425-.273.925-.41 1.5-.41Zm-.012.797c-.52 0-.934.17-1.242.51-.309.34-.492.814-.551 1.423h3.398a2.745 2.745 0 0 0-.181-1.007 1.415 1.415 0 0 0-.522-.68c-.234-.164-.535-.246-.902-.246Zm-29.69 16.52c0 .527-.068.997-.205 1.411a2.893 2.893 0 0 1-.591 1.05 2.58 2.58 0 0 1-.938.655 3.243 3.243 0 0 1-1.236.223 3.07 3.07 0 0 1-1.184-.223 2.67 2.67 0 0 1-.926-.656 3.032 3.032 0 0 1-.603-1.049 4.381 4.381 0 0 1-.211-1.412c0-.703.12-1.3.357-1.793a2.547 2.547 0 0 1 1.02-1.13c.445-.262.974-.393 1.588-.393.586 0 1.097.13 1.535.392.441.262.783.641 1.025 1.137.247.492.37 1.088.37 1.787Zm-4.886 0c0 .515.068.962.205 1.341.137.379.347.672.633.879.285.207.652.31 1.101.31.445 0 .81-.103 1.096-.31.289-.207.502-.5.639-.879.136-.379.205-.826.205-1.342 0-.511-.069-.953-.205-1.324-.137-.375-.348-.664-.633-.867-.285-.203-.654-.305-1.108-.305-.668 0-1.158.221-1.47.662-.309.442-.463 1.053-.463 1.834ZM51.656 79l-2.437-6.422h1.043l1.412 3.885c.098.266.197.559.299.879.101.32.172.578.21.773h.042c.047-.195.125-.453.234-.773l.299-.88 1.412-3.884h1.043L52.769 79h-1.113Zm7.06-6.54c.548 0 1.016.122 1.407.364.39.242.69.582.897 1.02.207.433.31.941.31 1.523v.604h-4.435c.011.754.199 1.328.562 1.722.363.395.875.592 1.535.592.406 0 .766-.037 1.078-.111.313-.074.637-.184.973-.328v.855c-.324.145-.646.25-.967.317-.316.066-.691.1-1.125.1-.617 0-1.156-.126-1.617-.376a2.623 2.623 0 0 1-1.066-1.113c-.254-.488-.381-1.086-.381-1.793 0-.692.115-1.29.345-1.793.235-.508.563-.899.985-1.172.426-.273.926-.41 1.5-.41Zm-.01.798c-.52 0-.934.17-1.243.51-.309.34-.492.814-.55 1.423h3.398a2.745 2.745 0 0 0-.182-1.007 1.415 1.415 0 0 0-.522-.68c-.234-.164-.535-.246-.902-.246Zm7.194-.797c.13 0 .264.008.405.023.14.012.265.03.375.053l-.123.902a3.032 3.032 0 0 0-.715-.088c-.258 0-.502.053-.733.159-.226.101-.425.25-.597.445a2.073 2.073 0 0 0-.405.697c-.097.27-.146.57-.146.903V79h-.979v-6.422h.809l.106 1.184h.04c.133-.239.294-.455.481-.65.188-.2.404-.358.65-.475.25-.118.528-.176.832-.176ZM69.305 79l-2.438-6.422h1.043l1.412 3.885c.098.266.197.559.3.879.1.32.171.578.21.773h.041c.047-.195.125-.453.234-.773l.3-.88 1.411-3.884h1.043L70.418 79h-1.113Zm5.56-6.422V79h-.972v-6.422h.972Zm-.474-2.402a.58.58 0 0 1 .41.158c.117.102.176.262.176.48 0 .215-.059.376-.176.48a.58.58 0 0 1-.41.16.595.595 0 0 1-.422-.16c-.11-.105-.164-.265-.164-.48 0-.218.054-.378.164-.48a.595.595 0 0 1 .422-.158Zm5.01 2.285c.546 0 1.015.121 1.406.363.39.242.69.582.896 1.02.207.433.31.941.31 1.523v.604h-4.435c.012.754.2 1.328.563 1.722.363.395.875.592 1.535.592.406 0 .765-.037 1.078-.111.312-.074.637-.184.973-.328v.855c-.325.145-.647.25-.967.317-.317.066-.692.1-1.125.1-.617 0-1.157-.126-1.617-.376a2.622 2.622 0 0 1-1.067-1.113c-.254-.488-.38-1.086-.38-1.793 0-.692.115-1.29.345-1.793.234-.508.563-.899.984-1.172.426-.273.926-.41 1.5-.41Zm-.012.797c-.52 0-.934.17-1.242.51-.31.34-.493.814-.551 1.423h3.398a2.745 2.745 0 0 0-.181-1.007 1.415 1.415 0 0 0-.522-.68c-.234-.164-.535-.246-.902-.246Zm9.504 5.73L87.75 75.25l-.147-.469-.122-.445a31.263 31.263 0 0 0-.1-.398l-.07-.323h-.042a7.781 7.781 0 0 1-.163.72 22.68 22.68 0 0 1-.118.458 8.225 8.225 0 0 1-.146.475l-1.195 3.72H84.55l-1.77-6.422h1.008l.926 3.545c.062.235.12.467.176.698.058.226.107.441.146.644.043.2.074.373.094.522h.047a9.34 9.34 0 0 0 .076-.352l.1-.434a15.943 15.943 0 0 1 .252-.902l1.183-3.72h1.049l1.143 3.714c.058.188.115.383.17.586.058.203.11.4.158.592.047.188.08.355.1.504h.046c.016-.133.045-.297.088-.492.043-.196.092-.41.146-.645l.182-.715.938-3.545h.99l-1.776 6.422h-1.13Zm53.927-8.617h2.414v.797h-2.414v2.484h-.802v-2.484h-2.414v-.797h2.414v-2.496h.802v2.496ZM150.08 75h-.949v-6.662l.012-.457c.007-.14.017-.283.029-.428a4.815 4.815 0 0 1-.34.322l-.393.323-.978.785-.51-.662 2.32-1.787h.809V75Zm5.953-5.238c.582 0 1.088.1 1.518.299.429.195.761.48.996.855.238.375.357.83.357 1.365 0 .586-.127 1.092-.381 1.518a2.52 2.52 0 0 1-1.095.978c-.477.227-1.047.34-1.711.34a6.21 6.21 0 0 1-1.242-.117 3.082 3.082 0 0 1-.967-.352v-.925c.285.171.631.308 1.037.41a4.9 4.9 0 0 0 1.184.152c.433 0 .812-.068 1.136-.205a1.65 1.65 0 0 0 .762-.633c.184-.285.275-.642.275-1.072 0-.57-.175-1.01-.527-1.318-.348-.313-.898-.47-1.652-.47-.243 0-.508.02-.797.06a6.735 6.735 0 0 0-.715.128l-.492-.322.328-4.02h4.26v.891h-3.428l-.217 2.584a8.14 8.14 0 0 1 .574-.094c.235-.035.5-.052.797-.052Zm5.906-3.451c.586 0 1.03.234 1.331.703.304.465.457 1.123.457 1.974 0 .852-.147 1.516-.44 1.993-.293.472-.742.709-1.348.709-.562 0-.994-.237-1.294-.71-.297-.476-.446-1.14-.446-1.992 0-.851.143-1.51.428-1.974.285-.47.723-.703 1.312-.703Zm0 .697c-.316 0-.548.166-.697.498-.148.328-.222.822-.222 1.482s.074 1.159.222 1.494c.149.336.381.504.697.504.329 0 .573-.168.733-.504.16-.335.24-.834.24-1.494 0-.656-.08-1.15-.24-1.482-.156-.332-.401-.498-.733-.498Zm5.426-.574L162.613 75h-.855l4.752-8.566h.855Zm-.228 3.31c.582 0 1.025.234 1.33.703.304.465.457 1.123.457 1.975 0 .847-.147 1.51-.44 1.986-.293.473-.742.71-1.347.71-.567 0-.998-.237-1.295-.71-.297-.476-.446-1.139-.446-1.986 0-.852.141-1.51.422-1.975.286-.469.725-.703 1.319-.703Zm0 .703c-.317 0-.549.164-.698.492-.148.329-.222.823-.222 1.483 0 .66.074 1.158.222 1.494.149.332.381.498.698.498.328 0 .572-.164.732-.492.16-.332.24-.832.24-1.5 0-.656-.08-1.149-.24-1.477-.156-.332-.4-.498-.732-.498Z"/>
  </g>
  <defs>
    <filter id="a" width="256" height="213" x="0" y="0" color-interpolation-filters="sRGB" filterUnits="userSpaceOnUse">
      <feFlood flood-opacity="0" result="BackgroundImageFix"/>
      <feColorMatrix in="SourceAlpha" result="hardAlpha" values="0 0 0 0 0 0 0 0 0 0 0 0 0 0 0 0 0 0 127 0"/>
      <feOffset dx="-2" dy="12"/>
      <feGaussianBlur stdDeviation="12.5"/>
      <feComposite in2="hardAlpha" operator="out"/>
      <feColorMatrix values="0 0 0 0 0.379167 0 0 0 0 0.379167 0 0 0 0 0.379167 0 0 0 0.1 0"/>
      <feBlend in2="BackgroundImageFix" result="effect1_dropShadow_2_3312"/>
      <feBlend in="SourceGraphic" in2="effect1_dropShadow_2_3312" result="shape"/>
    </filter>
  </defs>
</svg>
