<svg xmlns="http://www.w3.org/2000/svg" width="70" height="49" fill="none" viewBox="0 0 70 49">
  <path fill="#596B86" d="M69.996 11.504v-1.63c0-.234-.022-.454-.029-.685.002-.045.026-.084.026-.13V2.538c0-1.347-1.1-2.446-2.446-2.446h-1.63c-2.24 0-4.075 4.403-4.075 9.782v14.758a4.078 4.078 0 0 1 3.181 3.18h.08v18.75a2.45 2.45 0 0 0 2.443 2.445h.005c1.346 0 2.449-1.1 2.449-2.445V11.504h-.004ZM10.591 0a.817.817 0 0 0-.814.815V12.23a.813.813 0 1 1-1.63 0V.815A.817.817 0 0 0 7.333 0a.817.817 0 0 0-.815.815V12.23a.815.815 0 0 1-1.63 0V.815a.815.815 0 0 0-1.63 0V12.23a.816.816 0 0 1-.813.814.812.812 0 0 1-.815-.814V.815a.815.815 0 0 0-1.63 0v15.142c0 1.563 1.37 2.89 3.26 3.392V46.47c0 1.345 1.1 2.445 2.447 2.445 1.344 0 2.446-1.1 2.446-2.445L8.15 19.35c1.89-.502 3.261-1.83 3.261-3.392V.815a.823.823 0 0 0-.82-.815ZM35 9.336c-6.445 0-11.668 5.225-11.668 11.67H46.67C46.668 14.56 41.445 9.336 35 9.336Zm0 2.1c4.556 0 8.377 3.198 9.337 7.468H25.664c.96-4.27 4.78-7.468 9.336-7.468ZM33.948 0h2.098v7.002h-2.098V0ZM16.932 8.426l6.064 3.5-1.05 1.819-6.064-3.5 1.05-1.819Zm8.638-6.554 3.5 6.063-1.819 1.05-3.5-6.063 1.82-1.05Zm27.534 6.551 1.051 1.818-6.06 3.504-1.052-1.818 6.06-3.504Zm-8.64-6.551 1.818 1.051-3.504 6.06-1.819-1.05 3.505-6.061Zm7.259 23.801-6.609.002h-26.44v9.915c0 5.453 4.465 9.916 9.916 9.916h11.569c4.288 0 7.925-2.777 9.3-6.61h2.265c3.65 0 6.611-2.96 6.611-6.613a6.613 6.613 0 0 0-6.61-6.61h-.002Zm0 8.762h-1.652v-4.298h1.652a2.148 2.148 0 1 1 0 4.298Z"/>
</svg>
