<svg xmlns="http://www.w3.org/2000/svg" width="13" height="13" fill="none" viewBox="0 0 13 13">
  <path fill="#D23939" d="M3.69.242A3.698 3.698 0 0 0 0 3.938v5.278a3.698 3.698 0 0 0 3.692 3.694h5.273a3.698 3.698 0 0 0 3.692-3.695V3.936A3.698 3.698 0 0 0 8.964.242H3.691Zm6.435 2.027a.507.507 0 1 1 0 1.013.507.507 0 0 1 0-1.013ZM6.328 3.283A3.295 3.295 0 0 1 9.62 6.576 3.296 3.296 0 0 1 6.33 9.87a3.296 3.296 0 0 1-3.291-3.294 3.296 3.296 0 0 1 3.29-3.293Zm0 1.013a2.28 2.28 0 0 0-2.278 2.28 2.28 2.28 0 1 0 2.278-2.28Z"/>
</svg>
