<svg xmlns="http://www.w3.org/2000/svg" width="19" height="17" fill="none" viewBox="0 0 19 17">
  <path fill="#DA8907" d="M6.188 7.409a1.061 1.061 0 1 1-2.122 0 1.061 1.061 0 0 1 2.122 0Zm4.342 0a1.061 1.061 0 1 1-2.123 0 1.061 1.061 0 0 1 2.122 0Zm4.34 0a1.061 1.061 0 1 1-2.122 0 1.061 1.061 0 0 1 2.123 0Z"/>
  <path fill="#DA8907" d="M.651 16.882A.65.65 0 0 1 0 16.23V3.568A3.573 3.573 0 0 1 3.568 0h11.864A3.573 3.573 0 0 1 19 3.568v6.962a3.572 3.572 0 0 1-3.568 3.568H3.83L1.1 16.701a.648.648 0 0 1-.45.18ZM3.57 1.302a2.268 2.268 0 0 0-2.266 2.266V14.71l1.816-1.733a.65.65 0 0 1 .45-.18h11.862a2.268 2.268 0 0 0 2.266-2.266V3.57a2.269 2.269 0 0 0-2.265-2.266H3.569Z"/>
</svg>
