<svg xmlns="http://www.w3.org/2000/svg" width="56" height="48" fill="none" viewBox="0 0 56 48">
  <path fill="#596B86" d="M48.645 6.682c0-.88-.704-1.583-1.583-1.583h-1.7v3.224h1.7c.88-.059 1.583-.762 1.583-1.641Z"/>
  <path fill="#596B86" d="M40.38 17.465h4.748v8.616l3.106.586v-9.202h4.748a2.413 2.413 0 0 0 2.403-2.403V2.403C55.385 1.055 54.27 0 52.982 0h-12.6a2.414 2.414 0 0 0-2.404 2.403v12.6c-.058 1.349 1.055 2.462 2.403 2.462Zm3.05-14.359h3.633a3.527 3.527 0 0 1 3.517 3.517 3.527 3.527 0 0 1-3.517 3.517h-1.7v4.102H43.43V3.106Zm8.965 27.254-11.487-2.11c-.117 0-.234-.118-.293-.177-1.113-1.348-8.205-8.79-12.835-8.79H11.546c-3.81 0-7.268 3.574-9.436 6.563C.703 27.722 0 30.008 0 32.352v6.798a3.927 3.927 0 0 0 3.927 3.927h.879C5.509 45.89 8.029 48 11.076 48c3.049 0 5.569-2.11 6.272-4.923h21.158C39.209 45.89 41.729 48 44.776 48c3.049 0 5.568-2.11 6.272-4.923h.117c1.934 0 3.634-1.465 3.869-3.4l.644-4.922c.175-2.11-1.231-4.044-3.282-4.396ZM10.96 44.893a3.401 3.401 0 0 1-3.4-3.4 3.402 3.402 0 0 1 3.4-3.399 3.402 3.402 0 0 1 3.399 3.4c.059 1.875-1.465 3.399-3.4 3.399Zm7.677-15.707H8.44c-.527 0-.879-.527-.586-.996 1.524-2.697 5.334-5.334 7.209-5.334h2.579c.351 0 .644.235.703.587l.996 4.922c.06.41-.293.82-.703.82Zm16.41 0H23.795a.696.696 0 0 1-.703-.586l-.997-4.923a.708.708 0 0 1 .704-.82h4.98c1.7 0 5.217 2.695 7.737 5.098.469.469.176 1.231-.468 1.231Zm9.612 15.707a3.401 3.401 0 0 1-3.4-3.4 3.403 3.403 0 0 1 3.4-3.399c1.876 0 3.4 1.524 3.4 3.4a3.403 3.403 0 0 1-3.4 3.399Z"/>
</svg>
