<svg xmlns="http://www.w3.org/2000/svg" width="16" height="15" fill="none" viewBox="0 0 16 15">
  <path fill="#7587A0" fill-rule="evenodd" d="m15.79 11.93-4.045-2.935c-.257-.188-.513-.125-.706.062l-.321.313-1.027.999c-.321.312-.835.312-1.22 0l-3.788-3.31c-.193-.126-.257-.375-.257-.625a.79.79 0 0 1 .257-.625l1.091-1.062a.556.556 0 0 0 .064-.687L3.078.187C3.012.125 2.884 0 2.691 0c-.128 0-.32 0-.45.125L.639 1.375c-.642.499-.77 1.31-.514 2.06 2.119 5.497 6.677 9.62 12.456 11.494.642.187 1.412 0 1.862-.5.321-.375 1.092-1.312 1.22-1.437.064-.062.128-.187.193-.25.128-.124.128-.25.128-.437.064-.187-.064-.312-.193-.375Z" clip-rule="evenodd"/>
</svg>
