<svg xmlns="http://www.w3.org/2000/svg" width="72" height="72" fill="none" viewBox="0 0 72 72">
  <g filter="url(#a)">
    <circle cx="36" cy="34" r="19" fill="#C9D6E9" fill-opacity=".87"/>
    <path fill="#4C6487" d="M30.17 37.75a1.068 1.068 0 0 1 1.068-1.069c.187.001.372.052.534.146a1.067 1.067 0 0 1 .523 1.079 1.079 1.079 0 0 1-.534.781 1.054 1.054 0 0 1-1.287-.177 1.068 1.068 0 0 1-.304-.76Zm13.772-7.238h-4.147a3.551 3.551 0 0 1-6.507 0h-4.142A1.147 1.147 0 0 0 28 31.657v1.034h17.087v-1.034a1.146 1.146 0 0 0-1.145-1.145Zm-11.111 7.476c0 .051-.018.105-.03.156a.07.07 0 0 0 0 .029 1.818 1.818 0 0 1-.08.222 1.51 1.51 0 0 1-.066.134l-.02.037a1.872 1.872 0 0 1-.102.151l-.026.032c-.018.024-.034.047-.053.068.045.003.09.003.136 0a1.075 1.075 0 0 0 0-2.15 1.16 1.16 0 0 0-.137 0c.018.02.034.041.05.062l.032.04c.036.047.068.096.098.147 0 .014.016.029.023.043.024.043.045.085.064.128 0 .016.014.03.02.046.024.058.044.118.06.178v.032c.013.051.023.103.03.155a.226.226 0 0 1 0 .052 1.4 1.4 0 0 1 0 .377.3.3 0 0 1 0 .06ZM28 34.358h17.087v-1.135H28v1.136Zm0 .535h17.087v5.329a1.144 1.144 0 0 1-1.145 1.148H29.146A1.146 1.146 0 0 1 28 40.222v-5.33Zm8.038 2.185c0 .148.12.267.267.267h6.88a.267.267 0 0 0 0-.534h-6.88a.267.267 0 0 0-.267.267Zm0 1.342c0 .148.12.267.267.267h6.88a.267.267 0 1 0 0-.534h-6.88a.267.267 0 0 0-.267.267Zm-6.407-.67a1.602 1.602 0 0 0 1.601 1.601c.236.004.47-.045.684-.144.21.1.438.15.67.151a1.609 1.609 0 1 0 0-3.218 1.59 1.59 0 0 0-.672.152 1.602 1.602 0 0 0-2.278 1.458h-.005Zm9.928-8.662a3.015 3.015 0 1 1-6.028-.146 3.015 3.015 0 0 1 6.028.146Zm-1.616-.795a.266.266 0 0 0-.378 0l-1.377 1.374-.664-.664a.267.267 0 1 0-.377.379l.852.85a.263.263 0 0 0 .377 0l1.567-1.566a.269.269 0 0 0 0-.377v.004Z"/>
  </g>
  <defs>
    <filter id="a" width="72" height="72" x="0" y="0" color-interpolation-filters="sRGB" filterUnits="userSpaceOnUse">
      <feFlood flood-opacity="0" result="BackgroundImageFix"/>
      <feColorMatrix in="SourceAlpha" result="hardAlpha" values="0 0 0 0 0 0 0 0 0 0 0 0 0 0 0 0 0 0 127 0"/>
      <feOffset dy="2"/>
      <feGaussianBlur stdDeviation="8.5"/>
      <feComposite in2="hardAlpha" operator="out"/>
      <feColorMatrix values="0 0 0 0 0.175 0 0 0 0 0.175 0 0 0 0 0.175 0 0 0 0.12 0"/>
      <feBlend in2="BackgroundImageFix" result="effect1_dropShadow_2_3343"/>
      <feBlend in="SourceGraphic" in2="effect1_dropShadow_2_3343" result="shape"/>
    </filter>
  </defs>
</svg>
