<svg xmlns="http://www.w3.org/2000/svg" width="17" height="14" fill="none" viewBox="0 0 17 14">
  <path fill="#00B2FF" d="M16.385 1.616a6.463 6.463 0 0 1-1.905.547A3.45 3.45 0 0 0 15.938.251c-.64.395-1.35.684-2.105.837A3.237 3.237 0 0 0 11.417 0c-1.83 0-3.314 1.545-3.314 3.45 0 .27.03.532.087.787C5.436 4.09 2.994 2.717 1.36.63a3.54 3.54 0 0 0-.448 1.737A3.49 3.49 0 0 0 2.385 5.24a3.25 3.25 0 0 1-1.502-.431v.04c0 1.674 1.143 3.067 2.657 3.385-.277.08-.57.123-.87.123a3.37 3.37 0 0 1-.625-.063C2.467 9.66 3.69 10.66 5.14 10.69a6.493 6.493 0 0 1-4.906 1.427 9.138 9.138 0 0 0 5.08 1.549c6.095 0 9.428-5.258 9.428-9.819 0-.15-.004-.298-.01-.445a6.705 6.705 0 0 0 1.653-1.787Z"/>
</svg>
